<?xml version="1.0" encoding="UTF-8"?>
<svg width="787px" height="272px" viewBox="0 0 787 272" version="1.1" xmlns="http://www.w3.org/2000/svg" xmlns:xlink="http://www.w3.org/1999/xlink">
    <!-- Generator: Sketch Beta 63 (92418) - https://sketch.com -->
    <title>BG Right</title>
    <desc>Created with Sketch Beta.</desc>
    <defs>
        <linearGradient x1="92.5012072%" y1="41.3604402%" x2="29.9323327%" y2="51.5370124%" id="linearGradient-1">
            <stop stop-color="#519DFF" offset="0%"></stop>
            <stop stop-color="#D4377A" offset="100%"></stop>
        </linearGradient>
    </defs>
    <g id="2020---Winter" stroke="none" stroke-width="1" fill="none" fill-rule="evenodd">
        <g id="Recon_Subpage_Desktop_Safety-Copy" transform="translate(-1248.000000, -244.000000)" fill-rule="nonzero">
            <g id="Group" transform="translate(33.000000, 245.000000)">
                <g id="BG-Right" transform="translate(1216.000000, 0.000000)">
                    <path d="M12.5,203.39145 C5.596,203.75245 0,209.64245 0,216.54645 C0,223.45045 5.596,228.75245 12.5,228.39145 L572.5,199.04245 C579.403,198.68145 585,192.79145 585,185.88745 C585,178.98445 579.403,173.68145 572.5,174.04245 L12.5,203.39145 Z M57.5,156.03345 C50.596,156.39445 45,162.28545 45,169.18845 C45,176.09145 50.596,181.39445 57.5,181.03345 L329.5,166.77845 C336.403,166.41545 342,160.52645 342,153.62245 C342,146.71945 336.403,141.41545 329.5,141.77845 L57.5,156.03345 Z M17.322,159.10645 C12.643,157.39545 7.247,158.74345 3.662,162.51645 C0.076,166.28945 -0.988,171.74245 0.968,176.31745 C2.923,180.89345 7.512,183.68645 12.583,183.38645 C19.421,182.98345 24.955,177.16045 25,170.31945 C25.033,165.24645 22,160.81745 17.322,159.10645 Z M307.5,97.93145 C300.596,98.29245 295,104.18245 295,111.08645 C295,117.99045 300.596,123.29245 307.5,122.93145 L772.5,98.56145 C779.403,98.19945 785,92.30945 785,85.40645 C785,78.50245 779.403,73.19945 772.5,73.56145 L307.5,97.93145 Z M105.5,63.51745 C98.596,63.87945 93,69.76845 93,76.67245 C93,83.57645 98.596,88.87945 105.5,88.51745 L420.5,72.00945 C427.403,71.64745 433,65.75745 433,58.85345 C433,51.95045 427.403,46.64745 420.5,47.00945 L105.5,63.51745 Z M465.5,44.65045 C458.597,45.01245 453,50.90245 453,57.80545 C453,64.70945 458.597,70.01245 465.5,69.65045 L588.5,63.20445 C595.403,62.84245 601,56.95345 601,50.04945 C601,43.14545 595.403,37.84245 588.5,38.20445 L465.5,44.65045 Z M65.322,66.59045 C60.643,64.88045 55.247,66.22645 51.662,70.00045 C48.076,73.77345 47.012,79.22545 48.968,83.80245 C50.923,88.37745 55.512,91.17045 60.583,90.87145 C67.421,90.46745 72.955,84.64445 73,77.80345 C73.033,72.73045 70,68.30145 65.322,66.59045 Z M195.5,13.80045 C188.596,14.16245 183,20.05245 183,26.95545 C183,33.85945 188.596,39.16245 195.5,38.80045 L413.5,27.37545 C420.403,27.01445 426,21.12445 426,14.22045 C426,7.31744996 420.403,2.01444996 413.5,2.37544996 L195.5,13.80045 Z M155.322,16.87345 C150.643,15.16345 145.247,16.51045 141.662,20.28345 C138.076,24.05745 137.012,29.50945 138.968,34.08545 C140.923,38.66145 145.512,41.45345 150.583,41.15445 C157.421,40.75045 162.955,34.92845 163,28.08645 C163.033,23.01445 160,18.58445 155.322,16.87345 Z M463.321,0.732449962 C458.644,-0.978550038 453.247,0.368449962 449.661,4.14244996 C446.076,7.91544996 445.012,13.36845 446.968,17.94345 C448.924,22.51945 453.512,25.31245 458.583,25.01345 C465.422,24.60945 470.954,18.78645 471,11.94545 C471.033,6.87244996 468,2.44344996 463.321,0.732449962 Z M110.322,19.23245 C105.643,17.52145 100.247,18.86845 96.662,22.64145 C93.076,26.41545 92.012,31.86745 93.968,36.44345 C95.923,41.01945 100.512,43.81145 105.583,43.51345 C112.421,43.10945 117.955,37.28645 118,30.44545 C118.033,25.37245 115,20.94345 110.322,19.23245 Z M174.499779,239.80045 C167.595779,240.16245 161.999779,246.05245 161.999779,252.95545 C161.999779,259.85945 167.595779,265.16245 174.499779,264.80045 L392.499779,253.37545 C399.402779,253.01445 404.999779,247.12445 404.999779,240.22045 C404.999779,233.31745 399.402779,228.01445 392.499779,228.37545 L174.499779,239.80045 Z M134.321779,242.87345 C129.642779,241.16345 124.246779,242.51045 120.661779,246.28345 C117.075779,250.05745 116.011779,255.50945 117.967779,260.08545 C119.922779,264.66145 124.511779,267.45345 129.582779,267.15445 C136.420779,266.75045 141.954779,260.92845 141.999779,254.08645 C142.032779,249.01445 138.999779,244.58445 134.321779,242.87345 Z M442.320779,226.73245 C437.643779,225.02145 432.246779,226.36845 428.660779,230.14245 C425.075779,233.91545 424.011779,239.36845 425.967779,243.94345 C427.923779,248.51945 432.511779,251.31245 437.582779,251.01345 C444.421779,250.60945 449.953779,244.78645 449.999779,237.94545 C450.032779,232.87245 446.999779,228.44345 442.320779,226.73245 Z M89.3217788,245.23245 C84.6427788,243.52145 79.2467788,244.86845 75.6617788,248.64145 C72.0757788,252.41545 71.0117788,257.86745 72.9677788,262.44345 C74.9227788,267.01945 79.5117788,269.81145 84.5827788,269.51345 C91.4207788,269.10945 96.9547788,263.28645 96.9997788,256.44545 C97.0327788,251.37245 93.9997788,246.94345 89.3217788,245.23245 Z" id="Stroke-1" stroke="#8164AA" opacity="0.33"></path>
                    <path d="M365.661,143.54445 C369.247,139.77145 374.644,138.42345 379.321,140.13445 C384,141.84545 387.033,146.27545 387,151.34745 C386.954,158.18845 381.422,164.01145 374.583,164.41445 C369.512,164.71445 364.924,161.92145 362.968,157.34545 C361.012,152.77045 362.076,147.31845 365.661,143.54445 Z M542.5,130.61545 C549.403,130.25345 555,135.55645 555,142.45945 C555,149.36445 549.403,155.25345 542.5,155.61545 L542.5,155.61545 L419.5,162.06145 C412.597,162.42345 407,157.12045 407,150.21645 C407,143.31345 412.597,137.42345 419.5,137.06145 L419.5,137.06145 Z" id="Combined-Shape" stroke="url(#linearGradient-1)" fill="url(#linearGradient-1)"></path>
                </g>
            </g>
        </g>
    </g>
</svg>