<?xml version="1.0" encoding="UTF-8"?>
<svg width="1104px" height="342px" viewBox="0 0 1104 342" version="1.1" xmlns="http://www.w3.org/2000/svg" xmlns:xlink="http://www.w3.org/1999/xlink">
    <!-- Generator: Sketch Beta 63 (92418) - https://sketch.com -->
    <title>BG Left</title>
    <desc>Created with Sketch Beta.</desc>
    <defs>
        <linearGradient x1="-49.60713%" y1="47.6906896%" x2="77.4694684%" y2="50.6788762%" id="linearGradient-1">
            <stop stop-color="#519DFF" offset="0%"></stop>
            <stop stop-color="#D4377A" offset="100%"></stop>
        </linearGradient>
    </defs>
    <g id="2020---Winter" stroke="none" stroke-width="1" fill="none" fill-rule="evenodd">
        <g id="Recon_Subpage_Desktop_Safety-Copy" transform="translate(-32.000000, -338.000000)" fill-rule="nonzero">
            <g id="Group" transform="translate(33.000000, 245.000000)">
                <g id="BG-Left" transform="translate(0.000000, 94.000000)">
                    <path d="M577.5,215.180484 C584.403,214.817484 590,220.121484 590,227.024484 C590,233.928484 584.403,239.817484 577.5,240.180484 L577.5,240.180484 L305.5,254.435484 C298.596,254.796484 293,249.493484 293,242.590484 C293,235.687484 298.596,229.796484 305.5,229.435484 L305.5,229.435484 Z M613.661,216.946484 C617.247,213.173484 622.644,211.825484 627.321,213.536484 C632,215.247484 635.033,219.677484 635,224.749484 C634.954,231.590484 629.422,237.413484 622.583,237.816484 C617.512,238.116484 612.924,235.323484 610.968,230.747484 C609.012,226.172484 610.076,220.720484 613.661,216.946484 Z" id="Combined-Shape" stroke="url(#linearGradient-1)" fill="url(#linearGradient-1)"></path>
                    <path d="M462.5,174.933462 C469.404,174.571462 475,179.874462 475,186.778462 C475,193.681462 469.404,199.571462 462.5,199.933462 C288.799341,209.036617 158.523846,215.863983 71.6735164,220.415561 C64.7705164,220.777561 59,215.339462 59,208.436462 C59,201.533462 64.3207719,195.801131 71.2237719,195.439131 C158.174045,190.882316 288.599454,184.047093 462.5,174.933462 Z M417.5,132.291462 C424.404,131.929462 430,137.232462 430,144.136462 C430,151.039462 424.404,156.929462 417.5,157.291462 L145.5,171.546462 C138.597,171.908462 133,166.605462 133,159.701462 C133,152.797462 138.597,146.908462 145.5,146.546462 L417.5,132.291462 Z M95.679,150.124462 C100.357,147.923462 105.753,148.704462 109.339,152.103462 C112.924,155.500462 113.988,160.841462 112.033,165.621462 C110.077,170.403462 105.488,173.676462 100.417,173.909462 C93.579,174.222462 88.045,168.979462 88,162.142462 C87.967,157.074462 91,152.326462 95.679,150.124462 Z M457.679,131.153462 C462.356,128.952462 467.753,129.733462 471.339,133.131462 C474.925,136.529462 475.988,141.870462 474.032,146.650462 C472.077,151.431462 467.488,154.704462 462.418,154.937462 C455.579,155.250462 450.046,150.007462 450.001,143.170462 C449.967,138.102462 453,133.354462 457.679,131.153462 Z M367.5,89.9124618 C374.404,89.5504618 380,94.8534618 380,101.756462 C380,108.660462 374.404,114.549462 367.5,114.912462 C209.903548,123.171533 91.7062093,129.365836 12.9079834,133.495371 C6.00498338,133.857371 2.97453403e-12,128.339462 2.97453403e-12,121.436462 C2.97453403e-12,114.533462 5.35627631,108.891368 12.2592763,108.529368 C91.2016594,104.392277 209.615234,98.1866421 367.5,89.9124618 Z M415.5,42.3964618 C422.404,42.0344618 428,47.3374618 428,54.2414618 C428,61.1444618 422.404,67.0344618 415.5,67.3964618 L100.5,83.9044618 C93.597,84.2664618 88,78.9634618 88,72.0594618 C88,65.1564618 93.597,59.2664618 100.5,58.9044618 L415.5,42.3964618 Z M633.5,164.017484 C640.404,163.655484 646,168.958484 646,175.861484 C646,182.765484 640.404,188.655484 633.5,189.017484 L510.5,195.463484 C503.597,195.825484 498,190.521484 498,183.618484 C498,176.714484 503.597,170.825484 510.5,170.463484 L633.5,164.017484 Z M455.679,41.2584618 C460.356,39.0574618 465.753,39.8384618 469.339,43.2364618 C472.925,46.6334618 473.988,51.9744618 472.032,56.7554618 C470.077,61.5364618 465.488,64.8094618 460.418,65.0414618 C453.579,65.3554618 448.046,60.1124618 448.001,53.2754618 C447.967,48.2064618 451,43.4594618 455.679,41.2584618 Z M275.5,4.73346177 C282.404,4.37146177 288,9.67446177 288,16.5784618 C288,23.4814618 282.404,29.3714618 275.5,29.7334618 L57.5,41.1584618 C50.597,41.5194618 45,36.2174618 45,29.3134618 C45,22.4104618 50.597,16.5194618 57.5,16.1584618 L275.5,4.73346177 Z M315.679,3.59546177 C320.356,1.39446177 325.753,2.17546177 329.339,5.57346177 C332.925,8.97146177 333.988,14.3114618 332.032,19.0924618 C330.076,23.8734618 325.488,27.1464618 320.418,27.3794618 C313.579,27.6924618 308.046,22.4494618 308.001,15.6124618 C307.967,10.5434618 311,5.79646177 315.679,3.59546177 Z M7.679,19.7374618 C12.357,17.5364618 17.753,18.3174618 21.339,21.7144618 C24.924,25.1124618 25.988,30.4534618 24.033,35.2334618 C22.077,40.0154618 17.488,43.2884618 12.417,43.5204618 C5.579,43.8334618 0.045,38.5914618 2.24978049e-12,31.7544618 C-0.033,26.6854618 3,21.9384618 7.679,19.7374618 Z M360.679,1.23746177 C365.356,-0.963538231 370.753,-0.182538231 374.339,3.21446177 C377.925,6.61246177 378.988,11.9534618 377.032,16.7344618 C375.076,21.5154618 370.488,24.7884618 365.418,25.0204618 C358.579,25.3334618 353.046,20.0914618 353.001,13.2544618 C352.967,8.18546177 356,3.43846177 360.679,1.23746177 Z M260.5,276.793484 C253.596,277.154484 248,283.044484 248,289.948484 C248,296.852484 253.596,302.154484 260.5,301.793484 L1089.18254,259.807892 C1096.08554,259.446892 1101.68254,253.556892 1101.68254,246.652892 C1101.68254,239.749892 1096.08554,234.446892 1089.18254,234.807892 L260.5,276.793484 Z M667.5,210.463484 C660.597,210.825484 655,216.715484 655,223.618484 C655,230.522484 660.597,235.825484 667.5,235.463484 L790.5,229.017484 C797.403,228.655484 803,222.766484 803,215.861484 C803,208.958484 797.403,203.655484 790.5,204.017484 L667.5,210.463484 Z M457.5,315.463484 C450.597,315.825484 445,321.715484 445,328.618484 C445,335.522484 450.597,340.825484 457.5,340.463484 L580.5,334.017484 C587.403,333.655484 593,327.766484 593,320.861484 C593,313.958484 587.403,308.655484 580.5,309.017484 L457.5,315.463484 Z" id="Stroke-1" stroke="#8164AA" opacity="0.33"></path>
                </g>
            </g>
        </g>
    </g>
</svg>