<?xml version="1.0" encoding="UTF-8"?> <svg xmlns="http://www.w3.org/2000/svg" xmlns:xlink="http://www.w3.org/1999/xlink" width="144px" height="64px" viewBox="0 0 144 64" version="1.1"><!-- Generator: Sketch Beta 63 (92418) - https://sketch.com --><title>Group 24</title><desc>Created with Sketch Beta.</desc><defs><linearGradient x1="-49.60713%" y1="-60.8563691%" x2="77.4694684%" y2="82.5888395%" id="linearGradient-1"><stop stop-color="#519DFF" offset="0%"></stop><stop stop-color="#D4377A" offset="100%"></stop></linearGradient><linearGradient x1="18.4551203%" y1="-105.715942%" x2="58.699388%" y2="95.7763672%" id="linearGradient-2"><stop stop-color="#519DFF" offset="0%"></stop><stop stop-color="#D4377A" offset="100%"></stop></linearGradient></defs><g id="2020---Winter" stroke="none" stroke-width="1" fill="none" fill-rule="evenodd" stroke-linejoin="round"><g id="Recon_Homepage_Desktop_Hover" transform="translate(-926.000000, -2454.000000)" stroke-width="3"><g id="People-Copy-5" transform="translate(888.000000, 2416.000000)"><g id="Group-11"><g id="Group-24" transform="translate(40.000000, 40.000000)"><g id="Icon_Desktop-2" stroke="url(#linearGradient-1)"><path d="M11.1111111,7.40740741 L8.14814815,10.3703704 L11.1111111,7.40740741 Z M17.7777778,8.14814815 L8.88888889,17.037037 L17.7777778,8.14814815 Z M68.5167766,48.8888889 L2.59547996,48.8888889 C1.16258259,48.8888889 9.23705556e-14,47.5968063 9.23705556e-14,46.0014538 L9.23705556e-14,2.88616085 C9.23705556e-14,1.29208261 1.16258259,0 2.59547996,0 L68.5167766,0 C69.9496739,0 71.1111111,1.29208261 71.1111111,2.88616085 L71.1111111,46.0014538 C71.1111111,47.5968063 69.9496739,48.8888889 68.5167766,48.8888889 Z M43.7037037,60 L28.1481481,60 L29.8050435,48.8888889 L42.0468083,48.8888889 L43.7037037,60 Z M22.2222222,60 L48.8888889,60 L22.2222222,60 Z M0.740740741,40.7407407 L70.3703704,40.7407407 L0.740740741,40.7407407 Z" id="Icon_Desktop"></path></g><g id="Icon_Phone-2" transform="translate(112.000000, 10.000000)" stroke="url(#linearGradient-2)"><path d="M23.9669421,50 L4.17190083,50 C1.8677686,50 1.13686838e-13,48.1322314 1.13686838e-13,45.8292011 L1.13686838e-13,4.1707989 C1.13686838e-13,1.8677686 1.8677686,0 4.17190083,0 L23.9669421,0 C26.2710744,0 28.137741,1.8677686 28.137741,4.1707989 L28.137741,45.8292011 C28.137741,48.1322314 26.2710744,50 23.9669421,50 Z M10.8121212,4.95867769 L16.923416,4.95867769 L10.8121212,4.95867769 Z M5.50964187,44.6280992 L22.5895317,44.6280992 L5.50964187,44.6280992 Z" id="Icon_Phone"></path></g></g></g></g></g></g></svg> 