<?xml version="1.0" encoding="UTF-8"?> <svg xmlns="http://www.w3.org/2000/svg" xmlns:xlink="http://www.w3.org/1999/xlink" width="162px" height="64px" viewBox="0 0 162 64" version="1.1"><!-- Generator: Sketch Beta 63 (92418) - https://sketch.com --><title>Group 22</title><desc>Created with Sketch Beta.</desc><g id="2020---Winter" stroke="none" stroke-width="1" fill="none" fill-rule="evenodd" stroke-linejoin="round"><g id="Recon_Homepage_Desktop_Hover" transform="translate(-557.000000, -2454.000000)" stroke="#DAD4E2" stroke-width="3"><g id="People-Copy-4" transform="translate(519.000000, 2416.000000)"><g id="Group-11"><g id="Group-22" transform="translate(40.000000, 40.000000)"><g id="Icon_Server-2"><path d="M0,0 L60,0 L60,20 L0,20 L0,0 Z M14,10 L8,10 M50,13 C51.6568542,13 53,11.6568542 53,10 C53,8.34314575 51.6568542,7 50,7 C48.3431458,7 47,8.34314575 47,10 C47,11.6568542 48.3431458,13 50,13 Z M0,32 L60,32 L60,52 L0,52 L0,32 Z M14,42 L8,42 M28,10 L22,10 M28,42 L22,42 M50,45 C51.6568542,45 53,43.6568542 53,42 C53,40.3431458 51.6568542,39 50,39 C48.3431458,39 47,40.3431458 47,42 C47,43.6568542 48.3431458,45 50,45 Z M8,20 L8,27 M8,52 L8,59 M52,20 L52,27 M52,52 L52,59" id="Icon_Server"></path></g><g id="Icon_Workflow-2" transform="translate(100.000000, 0.000000)"><path d="M0,8.57142857 L13.962963,0 L27.9259259,8.57142857 L13.962963,17.1428571 L0,8.57142857 L0,8.57142857 Z M34.3703704,22.5 L58,22.5 L58,37.5 L34.3703704,37.5 L34.3703704,22.5 Z M8.07407407,45 L19.8518519,45 C23.7178451,45 26.8518519,48.1340068 26.8518519,52 L26.8518519,53 C26.8518519,56.8659932 23.7178451,60 19.8518519,60 L8.07407407,60 C4.20808083,60 1.07407407,56.8659932 1.07407407,53 L1.07407407,52 C1.07407407,48.1340068 4.20808083,45 8.07407407,45 Z M13.962963,17.1428571 L13.962963,45 M27.9259259,8.57142857 L46.1851852,8.57142857 L46.1851852,16.0714286 M26.8518519,52.5 L46.1851852,52.5 L46.1851852,43.9285714" id="Icon_Workflow"></path></g></g></g></g></g></g></svg> 