<?xml version="1.0" encoding="UTF-8"?> <svg xmlns="http://www.w3.org/2000/svg" xmlns:xlink="http://www.w3.org/1999/xlink" width="162px" height="61px" viewBox="0 0 162 61" version="1.1"><!-- Generator: Sketch Beta 63 (92418) - https://sketch.com --><title>Group 21</title><desc>Created with Sketch Beta.</desc><g id="2020---Winter" stroke="none" stroke-width="1" fill="none" fill-rule="evenodd" stroke-linejoin="round"><g id="Recon_Homepage_Desktop_Hover" transform="translate(-186.000000, -2454.000000)" stroke="#DAD4E2" stroke-width="3"><g id="People" transform="translate(150.000000, 2416.000000)"><g id="Group-11"><g id="Group-21" transform="translate(37.000000, 40.000000)"><g id="Icon_Camera-2"><path d="M59.603,49.1232099 L44.785,49.1232099 C42.922,49.1232099 41.306,47.8372099 40.887,46.0222099 L38.603,36.1232099 M58.826,26.4462099 L11.071,35.3382099 L6.023,8.22820986 L49.845,0.0682098624 C52.017,-0.335790138 54.105,1.09620986 54.51,3.26820986 L58.826,26.4462099 Z M-1.83852933e-13,12.2622099 L4.039,33.9502099 M21.603,20.1232099 C23.2598542,20.1232099 24.603,18.7800641 24.603,17.1232099 C24.603,15.4663556 23.2598542,14.1232099 21.603,14.1232099 C19.9461458,14.1232099 18.603,15.4663556 18.603,17.1232099 C18.603,18.7800641 19.9461458,20.1232099 21.603,20.1232099 Z M59.603,40.1232099 L59.603,58.1232099" id="Icon_Camera" transform="translate(30.051500, 29.061605) scale(-1, 1) translate(-30.051500, -29.061605) "></path></g><g id="Icon_Drone-2" transform="translate(101.000000, 2.000000)"><path d="M12,3 L12,-3.55271368e-15 M48,3 L48,-3.55271368e-15 M8,51 C8,43.2680135 14.2680135,37 22,37 M38,37 C45.7319865,37 52,43.2680135 52,51 M12,8 L12,15 M48,8 L48,15 M30,31 C32.209139,31 34,29.209139 34,27 C34,24.790861 32.209139,23 30,23 C27.790861,23 26,24.790861 26,27 C26,29.209139 27.790861,31 30,31 Z M0,3 L24,3 M36,3 L60,3 M48.0000001,15 L12.0000001,15 C8.68629155,15 6.00000013,17.6862916 6.00000013,21 C6.00000013,24.3137084 8.68629155,27 12.0000001,27 L19.0000001,27 L22.0000001,37 L38.0000001,37 L41.0000001,27 L48.0000001,27 C51.3137084,27 54.0000001,24.3137084 54.0000001,21 C54.0000001,17.6862916 51.3137084,15 48.0000001,15 L48.0000001,15 Z" id="Icon_Drone"></path></g></g></g></g></g></g></svg> 