<?xml version="1.0" encoding="UTF-8"?> <svg xmlns="http://www.w3.org/2000/svg" xmlns:xlink="http://www.w3.org/1999/xlink" width="499px" height="674px" viewBox="0 0 499 674" version="1.1"><!-- Generator: Sketch Beta 63 (92418) - https://sketch.com --><title>Combined Shape</title><desc>Created with Sketch Beta.</desc><g id="2020---Winter" stroke="none" stroke-width="1" fill="none" fill-rule="evenodd" opacity="0.33"><g id="Recon_Homepage_Desktop_Main" transform="translate(0.000000, -1072.000000)" fill-rule="nonzero" stroke="#8164AA"><g id="Group-5" transform="translate(-77.000000, 1073.000000)"><path d="M132.54235,48.965159 C136.066536,45.7480418 141.087087,44.7589235 145.567603,46.399003 C150.048119,48.0390824 153.244682,52.0360506 153.860726,56.7686864 C154.476769,61.5013221 152.410009,66.1838466 148.498749,68.9169683 C40.419659,154.325139 -1.73396737,298.830226 43.4648094,428.979431 C88.6635861,559.128637 211.298751,646.368944 349.034119,646.355584 C366.404405,646.299819 383.743602,644.882225 400.892416,642.115825 C406.512878,641.266128 412.002401,644.30167 414.272522,649.514621 C416.015718,653.110773 416.015718,657.307626 414.272522,660.903778 C412.368407,664.429493 408.923789,666.859948 404.964622,667.471249 C248.04561,692.936401 93.7474126,609.12014 29.651756,463.597699 C-34.4439005,318.075259 7.85636308,147.612002 132.54235,48.965159 Z M457.23845,630.809799 C460.638348,630.719593 463.929241,632.013692 466.357563,634.395767 C468.785884,636.777842 470.143638,640.043858 470.119918,643.445945 C470.071965,650.323951 464.499694,655.882485 457.623758,655.911415 C450.747821,655.94012 445.129184,650.428488 445.023617,643.551126 C444.918049,636.673764 450.364871,630.99217 457.23845,630.809799 Z M562.118532,482.917012 C569.23277,482.917012 575,488.686067 575,495.802556 C574.99008,498.850197 573.900598,501.795674 571.925069,504.11581 L571.925069,504.11581 L570.302099,505.974417 C516.505234,567.047191 439.128417,602.224347 357.677168,602.544736 L357.677168,602.544736 L357.095425,602.544736 C353.101948,602.544736 349.330881,600.705546 346.873357,597.556784 C343.81514,593.696764 343.25961,588.417545 345.447324,584.005149 C347.635037,579.592753 352.17271,576.840397 357.095425,576.939914 C357.370837,576.897684 357.651075,576.897684 357.926487,576.939914 C432.578839,576.610649 503.447579,544.029204 552.311995,487.572435 C554.728512,484.642144 558.321119,482.936638 562.118532,482.917012 Z M358.009593,41.067367 C361.656806,41.2434273 365.076182,42.8936479 367.483705,45.6398574 C369.821172,48.3376477 370.881354,51.9131035 370.392424,55.449497 C369.62339,62.0401103 363.976722,66.9690167 357.344744,66.8386549 L357.344744,66.8386549 L349.034119,66.8386549 C217.958266,66.84012 108.049415,165.860931 94.3823233,296.263558 C80.7152317,426.666185 167.703775,546.336256 295.929228,573.53148 C302.110212,575.533095 305.811355,581.849643 304.537227,588.2223 C303.263098,594.594958 297.417985,599.001651 290.942854,598.471242 C160.778978,570.709753 67.6271541,455.851946 67.3039474,322.72061 C67.5791145,166.957374 193.984864,40.8837495 349.698969,41.067367 L349.698969,41.067367 Z M303.907428,111.397696 C360.76765,98.7675815 420.317727,109.811089 468.873325,141.99047 C474.275231,145.731434 479.095393,149.223001 483.749343,152.963965 L483.749343,152.963965 L484.003742,153.178697 C489.18883,157.670898 489.876041,165.505742 485.494573,170.837461 C481.042437,176.255175 473.042732,177.036789 467.626731,172.583244 L467.626731,172.583244 L466.395879,171.603677 C461.456007,167.70671 456.319134,164.065761 451.005482,160.695291 C365.553195,107.664521 253.600592,130.324046 195.479906,212.414394 C137.35922,294.504742 153.150178,407.665068 231.521888,470.696529 C272.516693,503.581617 325.237457,518.134025 377.290242,510.932678 C404.49694,507.165101 430.542526,497.458773 453.581776,482.50135 L453.581776,482.50135 L459.814744,478.344723 C462.391038,476.598939 464.967331,474.686891 467.460519,472.774843 L467.460519,472.774843 L472.696212,468.784481 L477.100843,465.126649 L477.765693,464.627854 L479.012287,463.962794 C483.796268,461.884061 489.364153,462.938669 493.057242,466.623035 C495.540252,469.193744 496.809878,472.70144 496.547704,476.266409 C496.398065,479.897761 494.74154,483.302244 491.976861,485.660386 L491.976861,485.660386 L485.245255,491.230266 L483.749343,492.310989 L482.668961,493.142315 C478.430543,496.384484 474.109018,499.377255 470.119918,502.120629 C443.398894,519.838464 413.035966,531.316953 381.279342,535.706175 C371.451731,537.104214 361.536893,537.798751 351.610413,537.784703 C302.012988,537.721641 253.925616,520.709751 215.31617,489.567616 C168.53383,451.920835 139.682437,396.371119 135.783493,336.437479 C129.30143,231.863588 198.253749,137.522066 299.835222,111.979624 L299.835222,111.979624 L302.245303,111.397696 Z M400.549551,57.3230909 C403.122934,53.2352114 407.813043,50.987219 412.610397,51.5422677 C418.941015,52.2747136 423.7176,57.6373093 423.7176,64.0121485 C423.7176,70.3869878 418.941015,75.7495835 412.610397,76.4820294 C407.813043,77.0370781 403.122934,74.7890856 400.549551,70.7012062 C397.976168,66.6133268 397.976168,61.4109703 400.549551,57.3230909 Z M189.590478,20.2346429 C194.289945,18.2966467 199.69397,19.3859544 203.276341,22.9933486 C206.858712,26.6007428 207.911744,32.0135961 205.943178,36.7015692 C203.974612,41.3895423 199.373332,44.4265433 194.29029,44.3928693 C187.392122,44.3471707 181.824353,38.7403579 181.824353,31.839856 C181.824353,26.7550948 184.891011,22.172639 189.590478,20.2346429 Z M240.97534,0.97182589 C245.672073,-0.992431289 251.089738,0.0762564646 254.689402,3.67705949 C258.289066,7.27786252 259.357416,12.6972419 257.39378,17.3954606 C255.430144,22.0936792 250.823639,25.1397332 245.733056,25.1061203 C238.867169,25.0607851 233.31244,19.5042984 233.267119,12.6362395 C233.233517,7.54404591 236.278608,2.93608307 240.97534,0.97182589 Z" id="Combined-Shape"></path></g></g></g></svg> 