<?xml version="1.0" encoding="UTF-8"?> <svg xmlns="http://www.w3.org/2000/svg" xmlns:xlink="http://www.w3.org/1999/xlink" width="133px" height="155px" viewBox="0 0 133 155" version="1.1"><!-- Generator: Sketch Beta 63 (92418) - https://sketch.com --><title>Group 5</title><desc>Created with Sketch Beta.</desc><defs><linearGradient x1="90.6222936%" y1="76.3600895%" x2="21.6662283%" y2="22.8958572%" id="linearGradient-1"><stop stop-color="#CB2E80" offset="0%"></stop><stop stop-color="#C72F83" offset="13%"></stop><stop stop-color="#B9338A" offset="28%"></stop><stop stop-color="#A43996" offset="43%"></stop><stop stop-color="#963D9E" offset="50%"></stop><stop stop-color="#9141A1" offset="66%"></stop><stop stop-color="#824EA8" offset="85%"></stop><stop stop-color="#715BB0" offset="100%"></stop></linearGradient><linearGradient x1="0.219312924%" y1="61.3456114%" x2="102.195751%" y2="42.1037527%" id="linearGradient-2"><stop stop-color="#C82A81" offset="0%"></stop><stop stop-color="#D3357A" offset="99%"></stop></linearGradient><linearGradient x1="28.9974472%" y1="11.8418377%" x2="64.6441307%" y2="104.877732%" id="linearGradient-3"><stop stop-color="#487DC5" offset="0%"></stop><stop stop-color="#BC1E8A" offset="66%"></stop><stop stop-color="#D2337B" offset="99%"></stop></linearGradient><linearGradient x1="54.0716092%" y1="-3.10188498%" x2="44.5700513%" y2="95.9508035%" id="linearGradient-4"><stop stop-color="#7657AE" offset="0%"></stop><stop stop-color="#5E6BBA" offset="36%"></stop><stop stop-color="#C32585" offset="100%"></stop></linearGradient></defs><g id="2020---Winter" stroke="none" stroke-width="1" fill="none" fill-rule="evenodd"><g id="Recon_Homepage_Desktop_Main" transform="translate(-153.000000, -2048.000000)" fill-rule="nonzero"><g id="Group-5" transform="translate(153.000000, 2048.000000)"><path d="M113.592454,107.468436 C112.741625,106.619886 111.458874,106.376998 110.356722,106.855753 L110.069527,107.008924 L109.916356,107.123802 L108.9016,107.966241 L108.9016,107.966241 L107.69538,108.885265 C107.12099,109.325631 106.527454,109.765997 105.933917,110.16807 L104.497941,111.125387 C99.1900692,114.570247 93.1895852,116.805722 86.9216,117.673436 C74.929476,119.331986 62.7834603,115.980406 53.3389171,108.406607 C35.2833364,93.8897655 31.6453537,67.8276933 45.0354244,48.9213799 C58.4254951,30.0150665 84.2175732,24.7963277 103.904405,37.0098996 C105.2306,37.850844 106.508997,38.7648979 107.733673,39.7478264 L107.733673,39.7478264 C108.981433,40.7735269 110.824436,40.5935125 111.850136,39.3457532 C112.875837,38.0979938 112.695823,36.2549904 111.448063,35.2292898 L111.448063,35.2292898 C110.375868,34.3677045 109.26538,33.5635581 108.020868,32.7019728 C96.83444,25.290706 83.1150605,22.7472643 70.0153805,25.6561191 L69.6324536,25.6561191 L69.0772097,25.7901435 C45.6744732,31.6728499 29.7889685,53.4007439 31.2823317,77.4852654 C32.1805856,91.2886443 38.8274821,104.082357 49.6053805,112.752826 C58.5003754,119.925204 69.578932,123.84323 81.0053805,123.857754 C83.2922818,123.860989 85.5765009,123.70103 87.8406244,123.379046 C95.1568395,122.36816 102.151969,119.724537 108.308063,115.643924 C109.227088,115.012095 110.222698,114.322826 111.199161,113.576119 L111.448063,113.384656 L111.792698,113.135753 L113.343551,111.852948 C113.980489,111.309842 114.362126,110.525752 114.3966,109.689412 C114.457001,108.86836 114.164499,108.060499 113.592454,107.468436 Z" id="Path" fill="url(#linearGradient-1)"></path><path d="M132.470746,114.188802 C132.470746,112.549796 131.142069,111.221119 129.503063,111.221119 C128.628201,111.225639 127.800522,111.618436 127.243795,112.293314 C115.98622,125.295932 99.659203,132.799798 82.4605024,132.875631 C82.3970518,132.865905 82.3324896,132.865905 82.269039,132.875631 C81.1349248,132.852711 80.089518,133.486609 79.5855039,134.502833 C79.0814899,135.519056 79.2094751,136.734919 79.914039,137.623924 C80.4802131,138.349119 81.3490061,138.772705 82.269039,138.772705 L82.4030634,138.772705 C101.357666,138.69817 119.354527,130.432738 131.762332,116.103436 L131.762332,116.103436 C132.217462,115.569083 132.468461,114.890707 132.470746,114.188802 Z" id="Path" fill="url(#linearGradient-2)"></path><path d="M44.7613561,10.2241679 C45.932407,10.2319234 46.9924681,9.53246851 47.4459939,8.45277655 C47.8995198,7.37308459 47.6569181,6.12644473 46.8315975,5.29562202 C46.006277,4.4647993 44.7612766,4.21391973 43.678595,4.66026164 C42.5959135,5.10660354 41.8894049,6.1619937 41.8894049,7.33307032 C41.8894049,8.92233209 43.1721292,10.213643 44.7613561,10.2241679 L44.7613561,10.2241679 Z" id="Path" fill="#487DC5"></path><path d="M95.0587951,17.6146557 C96.5172678,17.4459653 97.6177161,16.2109003 97.6177161,14.7427045 C97.6177161,13.2745086 96.5172678,12.0394436 95.0587951,11.8707532 C93.953562,11.7429194 92.8730364,12.2606569 92.2801704,13.2021406 C91.6873044,14.1436244 91.6873044,15.3417845 92.2801704,16.2832683 C92.8730364,17.2247521 93.953562,17.7424895 95.0587951,17.6146557 L95.0587951,17.6146557 Z" id="Path" fill="#7657AE"></path><path d="M105.34038,145.282461 C103.756818,145.324463 102.501958,146.632996 102.526279,148.216929 C102.5506,149.800861 103.845044,151.070251 105.429149,151.06364 C107.013254,151.056977 108.297016,149.776785 108.308063,148.192704 C108.313528,147.409166 108.000723,146.656967 107.441277,146.108349 C106.881831,145.55973 106.123662,145.261685 105.34038,145.282461 Z" id="Path" fill="#D2337B"></path><path d="M92.359161,147.886363 C88.4083503,148.523496 84.4136782,148.849983 80.4118439,148.862826 C48.6798317,148.865903 20.4266633,128.773498 10.0135926,98.7986987 C-0.399478176,68.8238999 9.31203895,35.5427833 34.2117219,15.8723386 C35.1128133,15.2428705 35.5889616,14.1644334 35.4470351,13.0744552 C35.3051086,11.9844769 34.5686719,11.063931 33.5364331,10.6862026 C32.5041943,10.3084742 31.3475401,10.5362791 30.5356244,11.2772167 C1.80997962,33.9966736 -7.93532036,73.2562435 6.83128739,106.771668 C21.5978951,140.287093 57.1457167,159.590903 93.2973317,153.725997 C94.20946,153.585208 95.0030447,153.025447 95.4417219,152.213436 C95.8433264,151.385203 95.8433264,150.418621 95.4417219,149.590387 C94.9187227,148.389787 93.6540248,147.690669 92.359161,147.886363 Z" id="Path" fill="url(#linearGradient-3)"></path><path d="M56.6129414,5.78221666 C57.7857298,5.78995809 58.8469945,5.08841823 59.2993847,4.00636661 C59.7517748,2.92431498 59.5056442,1.67617208 58.6763395,0.846867394 C57.8470348,0.0175627056 56.5988919,-0.228567882 55.5168403,0.223822231 C54.4347887,0.676212343 53.7332488,1.73747706 53.7409902,2.91026544 C53.7514314,4.49205523 55.0311517,5.77177547 56.6129414,5.78221666 L56.6129414,5.78221666 Z" id="Path" fill="#487DC5"></path><path d="M15.5057463,74.3261191 C15.580208,104.987736 37.040889,131.440756 67.0285512,137.834534 C68.5203173,137.956693 69.8669374,136.941783 70.1604761,135.474089 C70.4540147,134.006396 69.6013308,132.551625 68.1773317,132.090631 C38.6362508,125.827271 18.5954904,98.2659325 21.7441684,68.232768 C24.8928463,38.1996035 50.2140767,15.3940175 80.4118439,15.3936801 L82.326478,15.3936801 C83.8543792,15.4237038 85.1552807,14.2885223 85.3324536,12.7706313 C85.4450951,11.9561608 85.2008465,11.1326939 84.6623317,10.511363 C84.1076769,9.87888062 83.3199079,9.49881661 82.4796488,9.45826799 L80.5650146,9.45826799 C44.6909909,9.41597884 15.5691404,38.4521264 15.5057463,74.3261191 Z" id="Path" fill="url(#linearGradient-4)"></path></g></g></g></svg> 